<?xml version="1.0" encoding="UTF-8"?>
<svg width="24" height="24" viewBox="0 0 24 24" fill="none" xmlns="http://www.w3.org/2000/svg">
  <path d="M9 3C8.44772 3 8 3.44772 8 4V5H5.5C5.22386 5 5 5.22386 5 5.5V6.5C5 6.77614 5.22386 7 5.5 7H18.5C18.7761 7 19 6.77614 19 6.5V5.5C19 5.22386 18.7761 5 18.5 5H16V4C16 3.44772 15.5523 3 15 3H9Z" fill="#DC2626"/>
  <path d="M7 8H17L16.2 19.2C16.1238 20.2673 15.2359 21.0938 14.166 21.0938H9.834C8.76414 21.0938 7.87618 20.2673 7.8 19.2L7 8Z" fill="#EF4444"/>
  <rect x="10" y="10" width="1.6" height="8" rx="0.8" fill="#FEE2E2"/>
  <rect x="12.4" y="10" width="1.6" height="8" rx="0.8" fill="#FEE2E2"/>
</svg>
